# xmcd
#
# Track frame offsets: 
#        150
#        16420
#        29172
#        41848
#        66465
#        77241
#        89400
#        104368
#        116068
#        127838
#        144678
#        160319
#        170581
#
# Disc length: 2377 seconds
#
# Revision: 0
# Processed by: cddbd v1.5.2PL0 Copyright (c) Steve Scherf et al.
# Submitted via: ExactAudioCopyFreeDBPlugin 1.0
#
DISCID=bc09470d
DTITLE=Alan Munde - In The Tradition
DYEAR=1984
DGENRE=Bluegrass
TTITLE0=Leather Britches
TTITLE1=Sockeye
TTITLE2=Five By Two
TTITLE3=Release Me, Danny Boy
TTITLE4=Sugarfoot Rag
TTITLE5=Train To Mexico
TTITLE6=Hank's Lonesome Cowdog Blues
TTITLE7=Tennessee Wagoner
TTITLE8=Munde's Child
TTITLE9=Old Pecan St.
TTITLE10=Paddy On The Turnpike
TTITLE11=Tennessee Breakdown
TTITLE12=Smith's Reel
EXTD=
EXTT0=
EXTT1=
EXTT2=
EXTT3=
EXTT4=
EXTT5=
EXTT6=
EXTT7=
EXTT8=
EXTT9=
EXTT10=
EXTT11=
EXTT12=
PLAYORDER=
